<svg width="200.000000" height="200.000000" viewBox="0 0 200 200" fill="none" xmlns="http://www.w3.org/2000/svg" xmlns:xlink="http://www.w3.org/1999/xlink">
	<desc>
			Created with Pixso.
	</desc>
	<defs>
		<linearGradient x1="0.000008" y1="-0.000008" x2="199.999969" y2="199.999878" id="paint_linear_12_7613_0" gradientUnits="userSpaceOnUse">
			<stop stop-color="#FFFFFF"/>
			<stop offset="1.000000" stop-color="#FFFFFF" stop-opacity="0.000000"/>
		</linearGradient>
		<linearGradient x1="26.903290" y1="45.625481" x2="174.395004" y2="144.500031" id="paint_linear_12_7619_0" gradientUnits="userSpaceOnUse">
			<stop stop-color="#6961FF"/>
			<stop offset="1.000000" stop-color="#AFA9FF"/>
		</linearGradient>
	</defs>
	<rect id="Прямоугольник 1" rx="30.000000" width="200.000000" height="200.000000" fill="url(#paint_linear_12_7613_0)" fill-opacity="1.000000"/>
	<path id="Слияние" d="M43.4072 73.6821Q38.8892 73.6821 35.3813 71.7998Q33.8374 70.9714 32.4893 69.7783Q30.7036 68.1984 29.6411 66.2285Q28.0776 63.3312 28.0776 59.5903Q28.0776 55.6202 29.7959 52.6407L29.7959 52.6407Q30.811 50.8804 32.4258 49.4658Q33.5498 48.4731 34.8223 47.7371L34.8223 47.7371Q38.4722 45.6255 43.3438 45.6255Q48.0254 45.6255 51.6113 47.6078Q53.0571 48.4073 54.3252 49.5293Q56.124 51.108 57.1895 53.0824Q58.7368 55.9506 58.7368 59.6538Q58.7368 63.2646 57.2505 66.0947Q56.1763 68.1405 54.3252 69.7783Q52.9771 70.9714 51.4331 71.7998Q47.9253 73.6821 43.4072 73.6821ZM174.395 76.4043L156.304 76.4043Q156.304 84.1924 155.206 91.1992Q152.496 106.995 145.489 115.809L139.8 76.4043L118.292 76.4043Q118.194 84.1924 116.851 91.1504Q115.508 98.1084 113.946 102.259Q112.408 106.409 110.137 110.364Q107.891 114.295 106.402 115.809L100.689 76.4043L68.9995 76.4043L87.7007 137L109.405 137L111.7 133.191Q113.995 129.505 116.949 123.45Q119.903 117.396 121.294 112.708L128.79 137L151.495 137L153.79 134.803Q156.207 132.703 159.6 127.747Q162.994 122.791 166.338 116.102Q169.708 109.412 172.051 98.8164Q174.395 88.1963 174.395 76.4043ZM57.8481 77.2051L60.0381 76.4116L55.6265 137L31.061 137L26.9033 76.4116Q28.1211 76.9028 29.3652 77.3131Q35.6777 79.395 42.6772 79.395Q51.0879 79.395 57.8481 77.2051Z" clip-rule="evenodd" fill="url(#paint_linear_12_7619_0)" fill-opacity="1.000000" fill-rule="evenodd"/>
</svg>
