<svg width="14.000000" height="18.000000" viewBox="0 0 14 18" fill="none" xmlns="http://www.w3.org/2000/svg" xmlns:xlink="http://www.w3.org/1999/xlink">
	<desc>
			Created with Pixso.
	</desc>
	<defs/>
	<path id="Vector" d="M1 16C1 17.1 1.9 18 3 18L11 18C12.09 18 13 17.1 13 16L13 6C13 4.89 12.09 4 11 4L3 4C1.9 4 1 4.89 1 6L1 16ZM4.16 8.16C4.55 7.77 5.19 7.77 5.58 8.16L7 9.58L8.41 8.16C8.8 7.77 9.44 7.77 9.83 8.16C10.21 8.56 10.21 9.18 9.83 9.58L8.41 11L9.83 12.41C10.21 12.81 10.21 13.43 9.83 13.83C9.44 14.22 8.8 14.22 8.41 13.83L7 12.41L5.58 13.83C5.19 14.22 4.55 14.22 4.16 13.83C3.78 13.43 3.78 12.81 4.16 12.41L5.58 11L4.16 9.58C3.78 9.2 3.78 8.56 4.16 8.16ZM10.5 1L9.79 0.29C9.61 0.1 9.34 0 9.08 0L4.91 0C4.65 0 4.38 0.1 4.2 0.29L3.5 1L1 1C0.45 1 0 1.45 0 2C0 2.54 0.45 3 1 3L13 3C13.54 3 14 2.54 14 2C14 1.45 13.54 1 13 1L10.5 1Z" fill="#E31A1A" fill-opacity="1.000000" fill-rule="evenodd"/>
</svg>
